<svg xmlns="http://www.w3.org/2000/svg" viewBox="0 0 512 512" width="512" height="512">
  <defs>
    <linearGradient id="bg" x1="0" y1="0" x2="1" y2="1">
      <stop offset="0%" stop-color="#87CEEB"/>
      <stop offset="55%" stop-color="#98FB98"/>
      <stop offset="100%" stop-color="#228B22"/>
    </linearGradient>
    <linearGradient id="dino" x1="0" y1="0" x2="0" y2="1">
      <stop offset="0%" stop-color="#6BCB77"/>
      <stop offset="100%" stop-color="#2E7D32"/>
    </linearGradient>
    <linearGradient id="tetrisT" x1="0" y1="0" x2="0" y2="1">
      <stop offset="0%" stop-color="#FF8FB1"/>
      <stop offset="100%" stop-color="#CC6F8F"/>
    </linearGradient>
    <linearGradient id="tetrisI" x1="0" y1="0" x2="0" y2="1">
      <stop offset="0%" stop-color="#FF6B6B"/>
      <stop offset="100%" stop-color="#CC4444"/>
    </linearGradient>
    <linearGradient id="tetrisO" x1="0" y1="0" x2="0" y2="1">
      <stop offset="0%" stop-color="#FFD93D"/>
      <stop offset="100%" stop-color="#CCB030"/>
    </linearGradient>
    <linearGradient id="tetrisL" x1="0" y1="0" x2="0" y2="1">
      <stop offset="0%" stop-color="#FF9F45"/>
      <stop offset="100%" stop-color="#CC7F36"/>
    </linearGradient>
  </defs>

  <rect width="512" height="512" fill="url(#bg)" rx="72"/>

  <g transform="translate(60,90)">
    <rect x="0" y="180" width="392" height="200" rx="12" fill="rgba(0,0,0,0.15)"/>
    <rect x="8" y="172" width="376" height="200" rx="10" fill="#556B2F" stroke="#2F4F4F" stroke-width="4"/>
    <rect x="20" y="184" width="352" height="176" rx="6" fill="#001a33"/>

    <rect x="28" y="192" width="32" height="32" rx="4" fill="url(#tetrisI)" stroke="#000" stroke-width="1"/>
    <rect x="64" y="192" width="32" height="32" rx="4" fill="url(#tetrisI)" stroke="#000" stroke-width="1"/>
    <rect x="100" y="192" width="32" height="32" rx="4" fill="url(#tetrisI)" stroke="#000" stroke-width="1"/>
    <rect x="136" y="192" width="32" height="32" rx="4" fill="url(#tetrisI)" stroke="#000" stroke-width="1"/>

    <rect x="28" y="228" width="32" height="32" rx="4" fill="url(#tetrisO)" stroke="#000" stroke-width="1"/>
    <rect x="64" y="228" width="32" height="32" rx="4" fill="url(#tetrisO)" stroke="#000" stroke-width="1"/>
    <rect x="28" y="264" width="32" height="32" rx="4" fill="url(#tetrisO)" stroke="#000" stroke-width="1"/>
    <rect x="64" y="264" width="32" height="32" rx="4" fill="url(#tetrisO)" stroke="#000" stroke-width="1"/>

    <rect x="108" y="228" width="32" height="32" rx="4" fill="url(#tetrisT)" stroke="#000" stroke-width="1"/>
    <rect x="144" y="228" width="32" height="32" rx="4" fill="url(#tetrisT)" stroke="#000" stroke-width="1"/>
    <rect x="180" y="228" width="32" height="32" rx="4" fill="url(#tetrisT)" stroke="#000" stroke-width="1"/>
    <rect x="144" y="264" width="32" height="32" rx="4" fill="url(#tetrisT)" stroke="#000" stroke-width="1"/>

    <rect x="220" y="264" width="32" height="32" rx="4" fill="url(#tetrisL)" stroke="#000" stroke-width="1"/>
    <rect x="256" y="228" width="32" height="32" rx="4" fill="url(#tetrisL)" stroke="#000" stroke-width="1"/>
    <rect x="256" y="264" width="32" height="32" rx="4" fill="url(#tetrisL)" stroke="#000" stroke-width="1"/>
    <rect x="292" y="264" width="32" height="32" rx="4" fill="url(#tetrisL)" stroke="#000" stroke-width="1"/>
  </g>

  <g transform="translate(256,90) scale(0.9)" transform-origin="256 256">
    <ellipse cx="0" cy="90" rx="68" ry="22" fill="rgba(0,0,0,0.18)"/>
    <path d="M-50,80 C-70,40 -60,10 -30,-5 C-18,-40 10,-60 40,-50 L60,-70 L55,-40 C75,-32 82,-8 70,18 C85,45 68,72 42,78 L50,100 L25,92 L18,110 L0,96 L-18,112 L-28,95 L-52,100 Z"
          fill="url(#dino)" stroke="#1B5E20" stroke-width="3" stroke-linejoin="round"/>
    <path d="M5,-45 L12,-68 L20,-44 Z M-12,-38 L-18,-60 L-4,-36 Z" fill="#4CAF50" stroke="#1B5E20" stroke-width="2" stroke-linejoin="round"/>
    <circle cx="36" cy="-28" r="6" fill="white" stroke="#000" stroke-width="1.5"/>
    <circle cx="38" cy="-27" r="3" fill="#000"/>
    <circle cx="65" cy="2" r="4" fill="#1B5E20"/>
    <circle cx="58" cy="10" r="3" fill="#1B5E20"/>
    <circle cx="50" cy="0" r="3" fill="#1B5E20"/>
    <path d="M70,-18 Q80,-8 75,6" stroke="#1B5E20" stroke-width="2" fill="none" stroke-linecap="round"/>
  </g>

  <text x="256" y="472" text-anchor="middle" font-family="Comic Sans MS, Trebuchet MS, sans-serif" font-size="44" font-weight="bold"
        fill="url(#tetrisI)" stroke="#5C2020" stroke-width="1.2">DINO TETRIS</text>
</svg>
